Force Plate Walk 2
version=1
nRows=38
nColumns=19
inDegrees=yes
endheader
time	ground_force1_vx	ground_force1_vy	ground_force1_vz	ground_force1_px	ground_force1_py	ground_force1_pz	ground_torque1_x	ground_torque1_y	ground_torque1_z	ground_force2_vx	ground_force2_vy	ground_force2_vz	ground_force2_px	ground_force2_py	ground_force2_pz	ground_torque2_x	ground_torque2_y	ground_torque2_z
4.965000	-80.286369	700.818726	42.314816	0.579838	0.000000	-0.155661	0.000009	-0.565681	0.000022	-0.000000	-0.000000	0.000000	0.254000	0.000000	-0.232000	0.000000	0.000000	0.000000	
4.966000	-81.327194	701.425476	42.551132	0.579584	0.000000	-0.155648	0.000003	-0.478900	0.000030	-0.000000	-0.000000	0.000000	0.254000	0.000000	-0.232000	0.000000	0.000000	0.000000	
4.967000	-82.102448	701.695435	42.534054	0.579273	0.000000	-0.155790	0.000008	-0.426308	0.000019	-0.000000	-0.000000	0.000000	0.254000	0.000000	-0.232000	0.000000	0.000000	0.000000	
4.968000	-82.887230	703.234375	42.675125	0.579235	0.000000	-0.155809	0.000009	-0.368291	0.000030	-0.000000	-0.000000	0.000000	0.254000	0.000000	-0.232000	0.000000	0.000000	0.000000	
4.969000	-83.989815	704.238098	42.668251	0.579276	0.000000	-0.155892	0.000011	-0.368932	0.000013	-0.000000	-0.000000	0.000000	0.254000	0.000000	-0.232000	0.000000	0.000000	0.000000	
4.970000	-84.723869	703.863098	42.467358	0.579071	0.000000	-0.155815	0.000007	-0.308000	0.000047	-0.000000	-0.000000	0.000000	0.254000	0.000000	-0.232000	0.000000	0.000000	0.000000	
4.971000	-85.491302	704.468689	42.611340	0.578994	0.000000	-0.155790	0.000000	-0.230924	0.000011	-0.000000	-0.000000	0.000000	0.254000	0.000000	-0.232000	0.000000	0.000000	0.000000	
4.972000	-87.012192	705.790833	42.632133	0.579125	0.000000	-0.155860	0.000008	-0.216062	0.000019	-0.000000	-0.000000	0.000000	0.254000	0.000000	-0.232000	0.000000	0.000000	0.000000	
4.973000	-87.719872	704.885376	42.844910	0.578581	0.000000	-0.155690	0.000011	-0.100607	-0.000001	-0.000000	-0.000000	0.000000	0.254000	0.000000	-0.232000	0.000000	0.000000	0.000000	
4.974000	-88.541878	703.925171	42.721016	0.578139	0.000000	-0.155518	0.000009	-0.105034	0.000030	-0.000000	-0.000000	0.000000	0.254000	0.000000	-0.232000	0.000000	0.000000	0.000000	
4.975000	-90.116219	704.704773	42.599770	0.578295	0.000000	-0.155619	0.000016	-0.133434	-0.000014	-0.000000	-0.000000	0.000000	0.254000	0.000000	-0.232000	0.000000	0.000000	0.000000	
4.976000	-91.139793	704.841431	42.681686	0.578172	0.000000	-0.155673	0.000016	-0.040490	0.000040	-0.000000	-0.000000	0.000000	0.254000	0.000000	-0.232000	0.000000	0.000000	0.000000	
4.977000	-92.009842	705.213135	42.717899	0.578114	0.000000	-0.155579	0.000010	-0.008033	0.000030	-0.000000	-0.000000	0.000000	0.254000	0.000000	-0.232000	0.000000	0.000000	0.000000	
4.978000	-92.756226	705.745178	42.577503	0.578032	0.000000	-0.155539	0.000013	-0.028480	0.000021	-0.000000	-0.000000	0.000000	0.254000	0.000000	-0.232000	0.000000	0.000000	0.000000	
4.979000	-93.606155	705.817383	42.745655	0.577879	0.000000	-0.155549	0.000002	0.069691	0.000038	-0.000000	-0.000000	0.000000	0.254000	0.000000	-0.232000	0.000000	0.000000	0.000000	
4.980000	-94.412514	705.088013	42.869289	0.577572	0.000000	-0.155548	0.000006	0.126058	0.000006	-0.000000	-0.000000	0.000000	0.254000	0.000000	-0.232000	0.000000	0.000000	0.000000	
4.981000	-95.297897	703.873535	42.777130	0.577081	0.000000	-0.155488	0.000021	0.179251	0.000027	-0.000000	-0.000000	0.000000	0.254000	0.000000	-0.232000	0.000000	0.000000	0.000000	
4.982000	-96.194374	702.570923	42.744358	0.576851	0.000000	-0.155341	0.000012	0.207887	0.000016	-0.000000	-0.000000	0.000000	0.254000	0.000000	-0.232000	0.000000	0.000000	0.000000	
4.983000	-97.111153	702.491455	42.625225	0.576963	0.000000	-0.155319	0.000005	0.153363	0.000037	-0.000000	-0.000000	0.000000	0.254000	0.000000	-0.232000	0.000000	0.000000	0.000000	
4.984000	-97.865448	702.724731	42.653419	0.576881	0.000000	-0.155485	0.000016	0.233794	0.000010	-0.000000	-0.000000	0.000000	0.254000	0.000000	-0.232000	0.000000	0.000000	0.000000	
4.985000	-98.778374	702.848999	43.054218	0.576938	0.000000	-0.155480	0.000010	0.325889	0.000020	-0.000000	-0.000000	0.000000	0.254000	0.000000	-0.232000	0.000000	0.000000	0.000000	
4.986000	-99.984657	702.150696	43.160023	0.576668	0.000000	-0.155415	0.000016	0.352330	0.000028	-0.000000	-0.000000	0.000000	0.254000	0.000000	-0.232000	0.000000	0.000000	0.000000	
4.987000	-100.585564	700.750000	42.753830	0.576141	0.000000	-0.155343	0.000003	0.367029	-0.000015	-0.000000	-0.000000	0.000000	0.254000	0.000000	-0.232000	0.000000	0.000000	0.000000	
4.988000	-101.267998	699.954773	42.725544	0.576174	0.000000	-0.155375	0.000005	0.424785	-0.000010	-0.000000	-0.000000	0.000000	0.254000	0.000000	-0.232000	0.000000	0.000000	0.000000	
4.989000	-102.324669	699.122192	42.776913	0.576150	0.000000	-0.155477	0.000003	0.428611	0.000009	-0.000000	-0.000000	0.000000	0.254000	0.000000	-0.232000	0.000000	0.000000	0.000000	
4.990000	-103.398880	698.196899	42.832130	0.576167	0.000000	-0.155478	0.000008	0.450341	0.000033	-0.000000	-0.000000	0.000000	0.254000	0.000000	-0.232000	0.000000	0.000000	0.000000	
4.991000	-104.543976	696.003845	42.496704	0.575558	0.000000	-0.155478	0.000015	0.477235	-0.000014	-0.000000	-0.000000	0.000000	0.254000	0.000000	-0.232000	0.000000	0.000000	0.000000	
4.992000	-105.568687	694.540039	41.915237	0.575302	0.000000	-0.155487	0.000011	0.412151	0.000029	-0.000000	-0.000000	0.000000	0.254000	0.000000	-0.232000	0.000000	0.000000	0.000000	
4.993000	-106.258133	693.160461	42.294888	0.575285	0.000000	-0.155244	0.000010	0.520868	0.000048	-0.000000	-0.000000	0.000000	0.254000	0.000000	-0.232000	0.000000	0.000000	0.000000	
4.994000	-107.097626	690.707214	42.327747	0.574680	0.000000	-0.155143	0.000014	0.603993	0.000049	-0.000000	-0.000000	0.000000	0.254000	0.000000	-0.232000	0.000000	0.000000	0.000000	
4.995000	-107.947647	689.407715	42.229515	0.574737	0.000000	-0.155137	0.000007	0.680620	-0.000005	-0.000000	-0.000000	0.000000	0.254000	0.000000	-0.232000	0.000000	0.000000	0.000000	
4.996000	-108.701385	689.710938	42.412655	0.575096	0.000000	-0.155124	0.000002	0.800129	-0.000001	-0.000000	-0.000000	0.000000	0.254000	0.000000	-0.232000	0.000000	0.000000	0.000000	
4.997000	-109.645905	688.685913	42.773514	0.574981	0.000000	-0.155210	0.000012	0.919437	0.000004	-0.000000	-0.000000	0.000000	0.254000	0.000000	-0.232000	0.000000	0.000000	0.000000	
4.998000	-110.808357	686.166260	42.675419	0.574763	0.000000	-0.155365	0.000012	0.974967	0.000025	-0.000000	-0.000000	0.000000	0.254000	0.000000	-0.232000	0.000000	0.000000	0.000000	
4.999000	-111.679344	682.705872	42.396790	0.574167	0.000000	-0.155255	0.000009	1.006666	0.000028	-0.000000	-0.000000	0.000000	0.254000	0.000000	-0.232000	0.000000	0.000000	0.000000	
5.000000	-112.494293	680.314636	42.565033	0.573794	0.000000	-0.155098	0.000001	1.055997	0.000037	-0.000000	-0.000000	0.000000	0.254000	0.000000	-0.232000	0.000000	0.000000	0.000000	
5.001000	-113.402374	678.550903	42.607327	0.573702	0.000000	-0.155189	0.000005	1.123142	0.000008	-0.000000	-0.000000	0.000000	0.254000	0.000000	-0.232000	0.000000	0.000000	0.000000	
5.002000	-114.153229	675.963257	42.582069	0.573493	0.000000	-0.155261	0.000015	1.154174	0.000011	-0.000000	-0.000000	0.000000	0.254000	0.000000	-0.232000	0.000000	0.000000	0.000000	
